<svg width="579" height="344" viewBox="0 0 579 344" fill="none" xmlns="http://www.w3.org/2000/svg">
<mask id="mask0_2158_706" style="mask-type:alpha" maskUnits="userSpaceOnUse" x="0" y="0" width="579" height="344">
<g clip-path="url(#clip0_2158_706)">
<path d="M44.3753 0H533.955L541.155 0.516L547.985 2.00896L554.347 4.39632L560.165 7.59896L565.335 11.5378L569.771 16.1267L573.379 21.2867L576.069 26.9386L577.752 32.9999L578.33 39.388V197.965L578.099 203.125L577.422 208.223L576.3 213.235L574.75 218.141L572.778 222.919L570.395 227.546L567.614 232L564.438 236.263L560.888 240.312L556.961 244.123L467.418 324.509L463.103 328.087L458.512 331.327L453.665 334.22L448.593 336.759L443.325 338.933L437.877 340.732L432.279 342.146L426.553 343.171L420.729 343.79L414.83 344H44.3753L37.175 343.484L30.345 341.991L23.9833 339.604L18.1653 336.401L12.9951 332.462L8.55928 327.873L4.9505 322.713L2.26127 317.061L0.57833 311L0 304.612V39.388L0.57833 32.9999L2.26127 26.9386L4.9505 21.2867L8.55928 16.1267L12.9951 11.5378L18.1653 7.59896L23.9833 4.39632L30.345 2.00896L37.175 0.516L44.3753 0Z" fill="black"/>
</g>
</mask>
<g mask="url(#mask0_2158_706)">
<rect width="578.33" height="344" fill="#EBEBEB"/>
</g>
<mask id="mask1_2158_706" style="mask-type:alpha" maskUnits="userSpaceOnUse" x="2" y="2" width="575" height="340">
<g clip-path="url(#clip1_2158_706)">
<path d="M46.0683 2H532.262L539.412 2.51L546.195 3.9856L552.513 6.3452L558.29 9.5106L563.425 13.4036L567.83 17.9392L571.414 23.0392L574.084 28.6254L575.756 34.6162L576.33 40.93V197.663L576.1 202.763L575.428 207.802L574.314 212.756L572.775 217.604L570.816 222.327L568.45 226.9L565.688 231.303L562.535 235.515L559.008 239.517L555.108 243.284L466.185 322.736L461.9 326.272L457.34 329.474L452.527 332.334L447.491 334.843L442.258 336.992L436.848 338.77L431.289 340.167L425.603 341.181L419.819 341.793L413.961 342H46.0683L38.9179 341.49L32.1351 340.014L25.8175 337.655L20.0397 334.489L14.9052 330.596L10.5001 326.061L6.91626 320.961L4.24563 315.375L2.57433 309.384L2 303.07V40.93L2.57433 34.6162L4.24563 28.6254L6.91626 23.0392L10.5001 17.9392L14.9052 13.4036L20.0397 9.5106L25.8175 6.3452L32.1351 3.9856L38.9179 2.51L46.0683 2Z" fill="black"/>
</g>
</mask>
<g mask="url(#mask1_2158_706)">
<rect width="574.33" height="340" transform="translate(2 2)" fill="white"/>
</g>
<g clip-path="url(#clip2_2158_706)">
<g clip-path="url(#clip3_2158_706)">
<path d="M533.938 274.063L560.722 304.975" stroke="#D00E46" stroke-width="5.21527" stroke-miterlimit="10" stroke-linecap="round"/>
<path d="M533.938 335.887L560.722 304.975" stroke="#D00E46" stroke-width="5.21527" stroke-miterlimit="10" stroke-linecap="round"/>
</g>
</g>
<defs>
<clipPath id="clip0_2158_706">
<rect width="578.33" height="344" fill="white"/>
</clipPath>
<clipPath id="clip1_2158_706">
<rect width="574.33" height="340" fill="white" transform="translate(2 2)"/>
</clipPath>
<clipPath id="clip2_2158_706">
<rect width="32" height="74.03" fill="white" transform="translate(531.33 267.96)"/>
</clipPath>
<clipPath id="clip3_2158_706">
<rect width="32" height="67.0388" fill="white" transform="translate(531.33 271.456)"/>
</clipPath>
</defs>
</svg>
